<?xml version="1.0" standalone="no"?>
<!DOCTYPE svg PUBLIC "-//W3C//DTD SVG 20010904//EN"
 "http://www.w3.org/TR/2001/REC-SVG-20010904/DTD/svg10.dtd">
<svg version="1.0" xmlns="http://www.w3.org/2000/svg"
 width="512.000000pt" height="512.000000pt" viewBox="0 0 512.000000 512.000000"
 preserveAspectRatio="xMidYMid meet">
<metadata>
Created by potrace 1.14, written by Peter Selinger 2001-2017
</metadata>
<g transform="translate(0.000000,512.000000) scale(0.100000,-0.100000)"
fill="#000000" stroke="none">
<path d="M2290 5105 c-307 -34 -575 -112 -848 -245 -262 -128 -451 -261 -666
-470 -227 -221 -370 -418 -511 -705 -129 -260 -208 -523 -247 -815 -16 -123
-16 -508 0 -625 42 -297 120 -552 247 -810 142 -289 283 -483 516 -710 394
-384 865 -615 1429 -702 161 -24 539 -24 700 0 281 44 519 116 755 231 275
133 460 262 674 471 232 226 374 421 517 710 127 258 207 523 246 815 16 123
16 497 0 620 -63 476 -256 932 -549 1295 -103 128 -321 339 -449 436 -519 391
-1179 574 -1814 504z m538 -886 c650 -71 1016 -419 1097 -1046 l7 -53 -379 0
-378 0 -22 94 c-56 239 -176 363 -389 401 -401 72 -655 -148 -740 -640 -22
-125 -30 -536 -15 -701 42 -447 190 -680 481 -760 89 -24 325 -25 424 0 81 19
185 68 215 100 21 22 21 31 19 267 l-3 244 -272 3 -273 2 0 270 0 270 665 0
665 0 0 -668 0 -669 -58 -56 c-259 -246 -783 -402 -1296 -384 -315 11 -544 77
-762 222 -356 237 -560 629 -604 1160 -13 155 -13 418 0 570 59 695 414 1179
981 1335 173 47 424 63 637 39z"/>
</g>
</svg>
